# Blender v2.69 (sub 0) OBJ File: 'untitled.blend'
# www.blender.org
mtllib room.mtl
o Cube
v 2.203624 -1.000000 -2.000000
v -2.203622 -1.000000 -2.000001
v 2.203624 -1.000000 2.000000
v 2.203625 1.000000 -1.999999
v 2.203623 1.000000 2.000001
v -2.203624 1.000000 1.999999
v -2.203623 -1.000000 2.000000
v -2.203623 1.000000 -2.000000
v -0.453721 0.075333 2.777118
v -0.453721 0.075333 0.777118
v -0.453721 -1.924667 2.777118
v 1.546279 0.075333 0.777118
v -0.453721 -1.924667 0.777118
v 1.546279 0.075333 2.777118
v 1.546279 -1.924667 0.777118
v 1.546279 -1.924667 2.777118
v -0.589659 -1.031956 1.265367
v -0.706964 0.032518 -0.423756
v -0.870646 -2.715953 0.223638
v 1.269722 -0.143693 -0.672077
v -0.987950 -1.651480 -1.465485
v 1.387026 -1.208166 1.017045
v 0.988735 -1.827690 -1.713807
v 0.728117 0.131095 2.085048
v 0.799363 0.087062 1.790214
v 0.855674 0.381901 1.963512
v 0.322309 -0.178912 1.790214
v 0.231202 -0.095157 1.509811
v 0.560835 -0.095157 1.616917
v 0.027473 -0.095155 1.790214
v 0.231202 -0.095157 2.070618
v 0.560835 -0.095157 1.963512
v 0.167307 0.131094 2.267269
v 0.469729 0.087061 2.243918
v 0.322309 0.381901 2.351027
v -0.179297 0.131097 1.790214
v -0.063636 0.087061 2.070619
v -0.211056 0.381901 1.963512
v 0.167307 0.131094 1.313160
v -0.063636 0.087061 1.509810
v -0.007329 0.381901 1.336508
v 0.728117 0.131095 1.495381
v 0.469729 0.087061 1.336511
v 0.651946 0.381901 1.336508
v 0.651946 0.381901 2.243921
v -0.007329 0.381901 2.243921
v -0.211056 0.381901 1.616916
v 0.322309 0.381901 1.229402
v 0.855674 0.381901 1.616916
v 0.477311 0.632707 2.267269
v 0.708254 0.676740 2.070619
v 0.413416 0.858958 2.070618
v -0.083499 0.632707 2.085048
v 0.174889 0.676741 2.243918
v 0.083783 0.858958 1.963512
v -0.083499 0.632707 1.495381
v -0.154745 0.676740 1.790214
v 0.083783 0.858958 1.616917
v 0.477311 0.632707 1.313160
v 0.174889 0.676741 1.336511
v 0.413416 0.858958 1.509811
v 0.823914 0.632705 1.790214
v 0.708254 0.676740 1.509810
v 0.617145 0.858957 1.790214
v 0.322309 0.942713 1.790214
v 0.130000 -0.100136 0.452307
v 0.130000 0.563842 0.452307
v 0.194768 -0.100136 0.458686
v 0.194768 0.563842 0.458686
v 0.257047 -0.100136 0.477578
v 0.257047 0.563842 0.477578
v 0.314443 -0.100136 0.508257
v 0.314443 0.563842 0.508257
v 0.364752 -0.100136 0.549544
v 0.364752 0.563842 0.549544
v 0.406039 -0.100136 0.599853
v 0.406039 0.563842 0.599853
v 0.436718 -0.100136 0.657249
v 0.436718 0.563842 0.657249
v 0.455610 -0.100136 0.719528
v 0.455610 0.563842 0.719528
v 0.461989 -0.100136 0.784296
v 0.461989 0.563842 0.784296
v 0.455610 -0.100136 0.849064
v 0.455610 0.563842 0.849064
v 0.436718 -0.100136 0.911343
v 0.436718 0.563842 0.911343
v 0.406039 -0.100136 0.968739
v 0.406039 0.563842 0.968739
v 0.364752 -0.100136 1.019048
v 0.364752 0.563842 1.019048
v 0.314443 -0.100136 1.060335
v 0.314443 0.563842 1.060335
v 0.257047 -0.100136 1.091014
v 0.257047 0.563842 1.091014
v 0.194768 -0.100136 1.109906
v 0.194768 0.563842 1.109906
v 0.130000 -0.100136 1.116285
v 0.130000 0.563842 1.116285
v 0.065232 -0.100136 1.109906
v 0.065232 0.563842 1.109906
v 0.002953 -0.100136 1.091014
v 0.002953 0.563842 1.091014
v -0.054444 -0.100136 1.060335
v -0.054444 0.563842 1.060335
v -0.104752 -0.100136 1.019047
v -0.104752 0.563842 1.019047
v -0.146039 -0.100136 0.968739
v -0.146039 0.563842 0.968739
v -0.176718 -0.100136 0.911342
v -0.176718 0.563842 0.911342
v -0.195610 -0.100136 0.849063
v -0.195610 0.563842 0.849063
v -0.201989 -0.100136 0.784295
v -0.201989 0.563842 0.784295
v -0.195610 -0.100136 0.719528
v -0.195610 0.563842 0.719528
v -0.176718 -0.100136 0.657249
v -0.176718 0.563842 0.657249
v -0.146039 -0.100136 0.599852
v -0.146039 0.563842 0.599852
v -0.104752 -0.100136 0.549544
v -0.104752 0.563842 0.549544
v -0.054443 -0.100136 0.508257
v -0.054443 0.563842 0.508257
v 0.002954 -0.100136 0.477578
v 0.065233 -0.100136 0.458686
v 0.065233 0.563842 0.458686
v 0.002954 0.563842 0.477578
vt 0.000000 0.000000
vt 1.000000 0.000000
vt 1.000000 1.000000
vn -0.000000 1.000000 0.000000
vn 0.000000 -1.000000 -0.000000
vn -1.000000 0.000000 0.000000
vn 0.000000 0.000001 -1.000000
vn 1.000000 0.000000 0.000000
vn -0.000000 -0.000001 1.000000
vn 0.000000 0.000000 -1.000000
vn -0.988343 0.088105 0.124161
vn -0.058652 0.532236 -0.844562
vn 0.988343 -0.088105 -0.124161
vn 0.140493 0.841998 0.520865
vn 0.904989 -0.330384 0.268031
vn 0.102381 -0.943523 -0.315091
vn -0.268036 -0.943522 -0.194737
vn -0.268035 -0.943523 0.194736
vn 0.700225 -0.661698 0.268031
vn 0.102380 -0.943524 0.315090
vn 0.024747 -0.330387 0.943521
vn -0.889697 -0.330383 0.315096
vn -0.574603 -0.330387 -0.748783
vn 0.534575 -0.330386 -0.777866
vn 0.802609 -0.125626 0.583127
vn -0.306569 -0.125630 0.943522
vn -0.992078 -0.125626 -0.000000
vn -0.306570 -0.125628 -0.943521
vn 0.802608 -0.125627 -0.583128
vn 0.408946 0.661699 0.628425
vn -0.471298 0.661699 0.583123
vn -0.700223 0.661700 -0.268032
vn 0.038531 0.661699 -0.748779
vn 0.724043 0.661694 -0.194737
vn 0.992077 0.125629 0.000000
vn 0.982246 -0.187598 -0.000000
vn 0.904989 -0.330385 -0.268032
vn 0.471299 -0.661697 -0.583124
vn 0.187595 -0.794656 -0.577347
vn -0.038528 -0.661699 -0.748779
vn -0.408946 -0.661699 -0.628425
vn -0.491119 -0.794658 -0.356821
vn -0.724041 -0.661696 -0.194737
vn -0.724042 -0.661696 0.194736
vn -0.491120 -0.794658 0.356819
vn -0.408945 -0.661699 0.628425
vn 0.700224 -0.661698 -0.268033
vn 0.607062 -0.794655 -0.000000
vn 0.331305 -0.943524 -0.000000
vn -0.038530 -0.661699 0.748779
vn 0.187595 -0.794656 0.577347
vn 0.471299 -0.661698 0.583124
vn 0.306570 0.125629 0.943521
vn 0.303533 -0.187598 0.934171
vn 0.534574 -0.330386 0.777866
vn -0.802610 0.125627 0.583125
vn -0.794657 -0.187595 0.577346
vn -0.574602 -0.330388 0.748784
vn -0.802609 0.125628 -0.583126
vn -0.794656 -0.187596 -0.577348
vn -0.889697 -0.330384 -0.315097
vn 0.306570 0.125629 -0.943521
vn 0.303532 -0.187598 -0.934171
vn 0.024748 -0.330387 -0.943521
vn 0.574602 0.330387 0.748784
vn 0.794656 0.187594 0.577348
vn 0.889697 0.330386 0.315094
vn -0.534574 0.330388 0.777865
vn -0.303532 0.187599 0.934171
vn -0.024746 0.330388 0.943521
vn -0.904989 0.330384 -0.268032
vn -0.982246 0.187598 0.000000
vn -0.904989 0.330384 0.268031
vn -0.024747 0.330388 -0.943521
vn -0.303531 0.187599 -0.934171
vn -0.534574 0.330388 -0.777865
vn 0.889697 0.330387 -0.315095
vn 0.794654 0.187596 -0.577349
vn 0.574602 0.330387 -0.748784
vn 0.268033 0.943523 0.194738
vn 0.491119 0.794657 0.356822
vn 0.724043 0.661694 0.194736
vn -0.102381 0.943523 0.315090
vn -0.187594 0.794658 0.577345
vn 0.038530 0.661698 0.748779
vn -0.331305 0.943524 0.000000
vn -0.607059 0.794656 0.000000
vn -0.700224 0.661699 0.268031
vn -0.102381 0.943523 -0.315091
vn -0.187594 0.794658 -0.577345
vn -0.471299 0.661699 -0.583122
vn 0.268033 0.943523 -0.194738
vn 0.491118 0.794657 -0.356824
vn 0.408946 0.661699 -0.628425
vn 0.098016 0.000000 -0.995185
vn 0.290283 0.000000 -0.956941
vn 0.471400 0.000000 -0.881919
vn 0.634388 0.000000 -0.773015
vn 0.773015 0.000000 -0.634388
vn 0.881920 0.000000 -0.471399
vn 0.956941 0.000000 -0.290283
vn 0.995185 0.000000 -0.098016
vn 0.995185 -0.000000 0.098015
vn 0.956941 0.000000 0.290283
vn 0.881920 -0.000000 0.471399
vn 0.773014 -0.000000 0.634389
vn 0.634389 -0.000000 0.773014
vn 0.471396 -0.000000 0.881922
vn 0.290281 -0.000000 0.956941
vn 0.098016 -0.000000 0.995185
vn -0.098018 -0.000000 0.995185
vn -0.290281 -0.000000 0.956941
vn -0.471394 -0.000000 0.881923
vn -0.634407 -0.000000 0.772999
vn -0.773008 -0.000000 0.634396
vn -0.881923 -0.000000 0.471394
vn -0.956941 -0.000000 0.290283
vn -0.995185 0.000000 0.098015
vn -0.995185 0.000000 -0.098017
vn -0.956941 0.000000 -0.290283
vn -0.881923 0.000000 -0.471392
vn -0.773008 0.000000 -0.634396
vn -0.634389 0.000000 -0.773014
vn -0.471394 0.000000 -0.881923
vn -0.098017 0.000000 -0.995185
vn -0.290284 0.000000 -0.956941
vn 0.000000 -1.000000 0.000002
vn -0.988343 0.088105 0.124160
vn -0.058653 0.532237 -0.844561
vn 0.290284 0.000000 -0.956941
vn 0.471399 0.000000 -0.881920
vn 0.634389 0.000000 -0.773014
vn 0.773014 0.000000 -0.634389
vn 0.995185 0.000000 -0.098015
vn 0.773015 -0.000000 0.634388
vn 0.634391 -0.000000 0.773012
vn 0.471400 -0.000000 0.881919
vn 0.098018 -0.000000 0.995185
vn -0.098016 -0.000000 0.995185
vn -0.471390 -0.000000 0.881925
vn -0.881923 -0.000000 0.471392
vn -0.995185 -0.000000 0.098016
vn -0.881923 0.000000 -0.471394
vn -0.773009 0.000000 -0.634395
vn -0.634388 0.000000 -0.773015
vn -0.471393 0.000000 -0.881923
vn 0.000000 1.000000 -0.000006
vn 0.000000 1.000000 0.000006
vn -0.000000 1.000000 -0.000002
vn -0.000000 1.000000 0.000002
vn 0.000001 1.000000 0.000001
vn 0.000000 1.000000 -0.000003
vn -0.000002 1.000000 -0.000001
vn -0.000002 1.000000 0.000000
vn -0.290282 0.000000 -0.956941
vn 0.000000 -1.000000 -0.000002
vn 0.000000 -1.000000 0.000001
vn 0.000000 -1.000000 -0.000001
usemtl Material
s off
f 1/1/1 2/2/1 3/3/1
f 4/1/2 5/2/2 6/3/2
f 1/1/3 3/2/3 4/3/3
f 3/1/4 7/2/4 5/3/4
f 7/1/5 2/2/5 6/3/5
f 8/1/6 1/2/6 4/3/6
f 9/1/3 10/2/3 11/3/3
f 10/1/7 12/2/7 13/3/7
f 12/1/5 14/2/5 15/3/5
f 14/1/1 12/2/1 9/3/1
f 17/1/8 18/2/8 19/3/8
f 18/1/9 20/2/9 21/3/9
f 20/1/10 22/2/10 23/3/10
f 22/1/11 20/2/11 17/3/11
f 24/1/12 25/2/12 26/3/12
f 27/1/13 28/2/13 29/3/13
f 27/1/14 30/2/14 28/3/14
f 27/1/15 31/2/15 30/3/15
f 24/1/16 32/2/16 25/3/16
f 27/1/17 32/2/17 31/3/17
f 33/1/18 34/2/18 35/3/18
f 36/1/19 37/2/19 38/3/19
f 39/1/20 40/2/20 41/3/20
f 42/1/21 43/2/21 44/3/21
f 24/1/22 26/2/22 45/3/22
f 33/1/23 35/2/23 46/3/23
f 36/1/24 38/2/24 47/3/24
f 39/1/25 41/2/25 48/3/25
f 42/1/26 44/2/26 49/3/26
f 50/1/27 51/2/27 52/3/27
f 53/1/28 54/2/28 55/3/28
f 56/1/29 57/2/29 58/3/29
f 59/1/30 60/2/30 61/3/30
f 62/1/31 63/2/31 64/3/31
f 26/1/32 49/2/32 62/3/32
f 26/1/33 25/2/33 49/3/33
f 25/1/34 42/2/34 49/3/34
f 29/1/35 43/2/35 42/3/35
f 29/1/36 28/2/36 43/3/36
f 28/1/37 39/2/37 43/3/37
f 28/1/38 40/2/38 39/3/38
f 28/1/39 30/2/39 40/3/39
f 30/1/40 36/2/40 40/3/40
f 30/1/41 37/2/41 36/3/41
f 30/1/42 31/2/42 37/3/42
f 31/1/43 33/2/43 37/3/43
f 25/1/44 29/2/44 42/3/44
f 25/1/45 32/2/45 29/3/45
f 32/1/46 27/2/46 29/3/46
f 31/1/47 34/2/47 33/3/47
f 31/1/48 32/2/48 34/3/48
f 32/1/49 24/2/49 34/3/49
f 35/1/50 45/2/50 50/3/50
f 35/1/51 34/2/51 45/3/51
f 34/1/52 24/2/52 45/3/52
f 38/1/53 46/2/53 53/3/53
f 38/1/54 37/2/54 46/3/54
f 37/1/55 33/2/55 46/3/55
f 41/1/56 47/2/56 56/3/56
f 41/1/57 40/2/57 47/3/57
f 40/1/58 36/2/58 47/3/58
f 44/1/59 48/2/59 59/3/59
f 44/1/60 43/2/60 48/3/60
f 43/1/61 39/2/61 48/3/61
f 45/1/62 51/2/62 50/3/62
f 45/1/63 26/2/63 51/3/63
f 26/1/64 62/2/64 51/3/64
f 46/1/65 54/2/65 53/3/65
f 46/1/66 35/2/66 54/3/66
f 35/1/67 50/2/67 54/3/67
f 47/1/68 57/2/68 56/3/68
f 47/1/69 38/2/69 57/3/69
f 38/1/70 53/2/70 57/3/70
f 48/1/71 60/2/71 59/3/71
f 48/1/72 41/2/72 60/3/72
f 41/1/73 56/2/73 60/3/73
f 49/1/74 63/2/74 62/3/74
f 49/1/75 44/2/75 63/3/75
f 44/1/76 59/2/76 63/3/76
f 52/1/77 64/2/77 65/3/77
f 52/1/78 51/2/78 64/3/78
f 51/1/79 62/2/79 64/3/79
f 55/1/80 52/2/80 65/3/80
f 55/1/81 54/2/81 52/3/81
f 54/1/82 50/2/82 52/3/82
f 58/1/83 55/2/83 65/3/83
f 58/1/84 57/2/84 55/3/84
f 57/1/85 53/2/85 55/3/85
f 61/1/86 58/2/86 65/3/86
f 61/1/87 60/2/87 58/3/87
f 60/1/88 56/2/88 58/3/88
f 64/1/89 61/2/89 65/3/89
f 64/1/90 63/2/90 61/3/90
f 63/1/91 59/2/91 61/3/91
f 66/1/92 67/2/92 68/3/92
f 68/1/93 69/2/93 70/3/93
f 70/1/94 71/2/94 72/3/94
f 72/1/95 73/2/95 74/3/95
f 74/1/96 75/2/96 76/3/96
f 76/1/97 77/2/97 78/3/97
f 78/1/98 79/2/98 80/3/98
f 80/1/99 81/2/99 82/3/99
f 82/1/100 83/2/100 84/3/100
f 84/1/101 85/2/101 86/3/101
f 86/1/102 87/2/102 88/3/102
f 88/1/103 89/2/103 90/3/103
f 90/1/104 91/2/104 92/3/104
f 92/1/105 93/2/105 94/3/105
f 94/1/106 95/2/106 96/3/106
f 96/1/107 97/2/107 98/3/107
f 98/1/108 99/2/108 100/3/108
f 100/1/109 101/2/109 102/3/109
f 102/1/110 103/2/110 104/3/110
f 104/1/111 105/2/111 106/3/111
f 106/1/112 107/2/112 108/3/112
f 108/1/113 109/2/113 110/3/113
f 110/1/114 111/2/114 112/3/114
f 112/1/115 113/2/115 114/3/115
f 114/1/116 115/2/116 116/3/116
f 116/1/117 117/2/117 118/3/117
f 118/1/118 119/2/118 120/3/118
f 120/1/119 121/2/119 122/3/119
f 122/1/120 123/2/120 124/3/120
f 124/1/121 125/2/121 126/3/121
f 69/1/1 67/2/1 71/3/1
f 127/1/122 128/2/122 66/3/122
f 126/1/123 129/2/123 127/3/123
f 66/1/124 68/2/124 127/3/124
f 2/1/1 7/2/1 3/3/1
f 8/1/2 4/2/2 6/3/2
f 3/1/3 5/2/3 4/3/3
f 7/1/7 6/2/7 5/3/7
f 2/1/5 8/2/5 6/3/5
f 2/1/6 1/2/6 8/3/6
f 10/1/3 13/2/3 11/3/3
f 12/1/7 15/2/7 13/3/7
f 14/1/5 16/2/5 15/3/5
f 12/1/1 10/2/1 9/3/1
f 18/1/125 21/2/125 19/3/125
f 20/1/126 23/2/126 21/3/126
f 20/1/11 18/2/11 17/3/11
f 67/1/92 69/2/92 68/3/92
f 69/1/127 71/2/127 70/3/127
f 71/1/128 73/2/128 72/3/128
f 73/1/129 75/2/129 74/3/129
f 75/1/130 77/2/130 76/3/130
f 77/1/97 79/2/97 78/3/97
f 79/1/98 81/2/98 80/3/98
f 81/1/131 83/2/131 82/3/131
f 83/1/100 85/2/100 84/3/100
f 85/1/101 87/2/101 86/3/101
f 87/1/102 89/2/102 88/3/102
f 89/1/132 91/2/132 90/3/132
f 91/1/133 93/2/133 92/3/133
f 93/1/134 95/2/134 94/3/134
f 95/1/106 97/2/106 96/3/106
f 97/1/135 99/2/135 98/3/135
f 99/1/136 101/2/136 100/3/136
f 101/1/109 103/2/109 102/3/109
f 103/1/137 105/2/137 104/3/137
f 105/1/111 107/2/111 106/3/111
f 107/1/112 109/2/112 108/3/112
f 109/1/138 111/2/138 110/3/138
f 111/1/114 113/2/114 112/3/114
f 113/1/139 115/2/139 114/3/139
f 115/1/116 117/2/116 116/3/116
f 117/1/117 119/2/117 118/3/117
f 119/1/140 121/2/140 120/3/140
f 121/1/141 123/2/141 122/3/141
f 123/1/142 125/2/142 124/3/142
f 125/1/143 129/2/143 126/3/143
f 67/1/144 128/2/144 71/3/144
f 128/1/145 129/2/145 71/3/145
f 129/1/1 125/2/1 71/3/1
f 125/1/1 123/2/1 71/3/1
f 123/1/146 121/2/146 71/3/146
f 121/1/147 119/2/147 71/3/147
f 119/1/1 117/2/1 71/3/1
f 117/1/1 115/2/1 71/3/1
f 115/1/1 113/2/1 71/3/1
f 113/1/1 111/2/1 71/3/1
f 111/1/148 109/2/148 71/3/148
f 101/1/1 105/2/1 103/3/1
f 109/1/1 107/2/1 71/3/1
f 107/1/1 105/2/1 101/3/1
f 71/1/1 107/2/1 101/3/1
f 89/1/1 93/2/1 91/3/1
f 89/1/149 95/2/149 93/3/149
f 89/1/147 97/2/147 95/3/147
f 81/1/1 85/2/1 83/3/1
f 81/1/1 87/2/1 85/3/1
f 81/1/150 89/2/150 87/3/150
f 81/1/1 97/2/1 89/3/1
f 77/1/1 81/2/1 79/3/1
f 77/1/1 97/2/1 81/3/1
f 71/1/1 101/2/1 99/3/1
f 71/1/1 99/2/1 97/3/1
f 73/1/151 71/2/151 75/3/151
f 71/1/1 97/2/1 75/3/1
f 97/1/1 77/2/1 75/3/1
f 128/1/122 67/2/122 66/3/122
f 129/1/152 128/2/152 127/3/152
f 68/1/153 70/2/153 127/3/153
f 70/1/154 72/2/154 127/3/154
f 72/1/155 74/2/155 127/3/155
f 74/1/2 76/2/2 127/3/2
f 76/1/2 78/2/2 127/3/2
f 78/1/2 80/2/2 127/3/2
f 80/1/2 82/2/2 127/3/2
f 82/1/2 84/2/2 127/3/2
f 84/1/2 86/2/2 127/3/2
f 86/1/2 88/2/2 127/3/2
f 88/1/2 90/2/2 127/3/2
f 104/1/154 100/2/154 102/3/154
f 90/1/2 92/2/2 127/3/2
f 106/1/155 100/2/155 104/3/155
f 122/1/155 118/2/155 120/3/155
f 122/1/2 116/2/2 118/3/2
f 92/1/2 94/2/2 127/3/2
f 96/1/124 98/2/124 100/3/124
f 96/1/2 100/2/2 106/3/2
f 96/1/2 106/2/2 108/3/2
f 94/1/2 96/2/2 108/3/2
f 127/1/2 94/2/2 108/3/2
f 126/1/2 127/2/2 124/3/2
f 127/1/2 108/2/2 124/3/2
f 108/1/2 110/2/2 124/3/2
f 110/1/2 112/2/2 124/3/2
f 114/1/2 116/2/2 122/3/2
f 112/1/2 114/2/2 124/3/2
f 114/1/2 122/2/2 124/3/2
